<?xml version="1.0" encoding="utf-8" standalone="no"?>
<!DOCTYPE svg PUBLIC "-//W3C//DTD SVG 1.1//EN"
  "http://www.w3.org/Graphics/SVG/1.1/DTD/svg11.dtd">
<!-- Created with matplotlib (https://matplotlib.org/) -->
<svg height="300.989344pt" version="1.1" viewBox="0 0 403.966875 300.989344" width="403.966875pt" xmlns="http://www.w3.org/2000/svg" xmlns:xlink="http://www.w3.org/1999/xlink">
 <defs>
  <style type="text/css">
*{stroke-linecap:butt;stroke-linejoin:round;}
  </style>
 </defs>
 <g id="figure_1">
  <g id="patch_1">
   <path d="M 0 300.989344 
L 403.966875 300.989344 
L 403.966875 0 
L 0 0 
z
" style="fill:#ffffff;"/>
  </g>
  <g id="axes_1">
   <g id="patch_2">
    <path d="M 30.103125 277.111219 
L 387.223125 277.111219 
L 387.223125 10.999219 
L 30.103125 10.999219 
z
" style="fill:#ffffff;"/>
   </g>
   <g id="matplotlib.axis_1">
    <g id="xtick_1">
     <g id="line2d_1">
      <defs>
       <path d="M 0 0 
L 0 3.5 
" id="mcb3012869d" style="stroke:#000000;stroke-width:0.8;"/>
      </defs>
      <g>
       <use style="stroke:#000000;stroke-width:0.8;" x="30.103125" xlink:href="#mcb3012869d" y="277.111219"/>
      </g>
     </g>
     <g id="text_1">
      <!-- 0 -->
      <defs>
       <path d="M 31.78125 66.40625 
Q 24.171875 66.40625 20.328125 58.90625 
Q 16.5 51.421875 16.5 36.375 
Q 16.5 21.390625 20.328125 13.890625 
Q 24.171875 6.390625 31.78125 6.390625 
Q 39.453125 6.390625 43.28125 13.890625 
Q 47.125 21.390625 47.125 36.375 
Q 47.125 51.421875 43.28125 58.90625 
Q 39.453125 66.40625 31.78125 66.40625 
z
M 31.78125 74.21875 
Q 44.046875 74.21875 50.515625 64.515625 
Q 56.984375 54.828125 56.984375 36.375 
Q 56.984375 17.96875 50.515625 8.265625 
Q 44.046875 -1.421875 31.78125 -1.421875 
Q 19.53125 -1.421875 13.0625 8.265625 
Q 6.59375 17.96875 6.59375 36.375 
Q 6.59375 54.828125 13.0625 64.515625 
Q 19.53125 74.21875 31.78125 74.21875 
z
" id="DejaVuSans-48"/>
      </defs>
      <g transform="translate(26.921875 291.709656)scale(0.1 -0.1)">
       <use xlink:href="#DejaVuSans-48"/>
      </g>
     </g>
    </g>
    <g id="xtick_2">
     <g id="line2d_2">
      <g>
       <use style="stroke:#000000;stroke-width:0.8;" x="74.743125" xlink:href="#mcb3012869d" y="277.111219"/>
      </g>
     </g>
     <g id="text_2">
      <!-- 25 -->
      <defs>
       <path d="M 19.1875 8.296875 
L 53.609375 8.296875 
L 53.609375 0 
L 7.328125 0 
L 7.328125 8.296875 
Q 12.9375 14.109375 22.625 23.890625 
Q 32.328125 33.6875 34.8125 36.53125 
Q 39.546875 41.84375 41.421875 45.53125 
Q 43.3125 49.21875 43.3125 52.78125 
Q 43.3125 58.59375 39.234375 62.25 
Q 35.15625 65.921875 28.609375 65.921875 
Q 23.96875 65.921875 18.8125 64.3125 
Q 13.671875 62.703125 7.8125 59.421875 
L 7.8125 69.390625 
Q 13.765625 71.78125 18.9375 73 
Q 24.125 74.21875 28.421875 74.21875 
Q 39.75 74.21875 46.484375 68.546875 
Q 53.21875 62.890625 53.21875 53.421875 
Q 53.21875 48.921875 51.53125 44.890625 
Q 49.859375 40.875 45.40625 35.40625 
Q 44.1875 33.984375 37.640625 27.21875 
Q 31.109375 20.453125 19.1875 8.296875 
z
" id="DejaVuSans-50"/>
       <path d="M 10.796875 72.90625 
L 49.515625 72.90625 
L 49.515625 64.59375 
L 19.828125 64.59375 
L 19.828125 46.734375 
Q 21.96875 47.46875 24.109375 47.828125 
Q 26.265625 48.1875 28.421875 48.1875 
Q 40.625 48.1875 47.75 41.5 
Q 54.890625 34.8125 54.890625 23.390625 
Q 54.890625 11.625 47.5625 5.09375 
Q 40.234375 -1.421875 26.90625 -1.421875 
Q 22.3125 -1.421875 17.546875 -0.640625 
Q 12.796875 0.140625 7.71875 1.703125 
L 7.71875 11.625 
Q 12.109375 9.234375 16.796875 8.0625 
Q 21.484375 6.890625 26.703125 6.890625 
Q 35.15625 6.890625 40.078125 11.328125 
Q 45.015625 15.765625 45.015625 23.390625 
Q 45.015625 31 40.078125 35.4375 
Q 35.15625 39.890625 26.703125 39.890625 
Q 22.75 39.890625 18.8125 39.015625 
Q 14.890625 38.140625 10.796875 36.28125 
z
" id="DejaVuSans-53"/>
      </defs>
      <g transform="translate(68.380625 291.709656)scale(0.1 -0.1)">
       <use xlink:href="#DejaVuSans-50"/>
       <use x="63.623047" xlink:href="#DejaVuSans-53"/>
      </g>
     </g>
    </g>
    <g id="xtick_3">
     <g id="line2d_3">
      <g>
       <use style="stroke:#000000;stroke-width:0.8;" x="119.383125" xlink:href="#mcb3012869d" y="277.111219"/>
      </g>
     </g>
     <g id="text_3">
      <!-- 50 -->
      <g transform="translate(113.020625 291.709656)scale(0.1 -0.1)">
       <use xlink:href="#DejaVuSans-53"/>
       <use x="63.623047" xlink:href="#DejaVuSans-48"/>
      </g>
     </g>
    </g>
    <g id="xtick_4">
     <g id="line2d_4">
      <g>
       <use style="stroke:#000000;stroke-width:0.8;" x="164.023125" xlink:href="#mcb3012869d" y="277.111219"/>
      </g>
     </g>
     <g id="text_4">
      <!-- 75 -->
      <defs>
       <path d="M 8.203125 72.90625 
L 55.078125 72.90625 
L 55.078125 68.703125 
L 28.609375 0 
L 18.3125 0 
L 43.21875 64.59375 
L 8.203125 64.59375 
z
" id="DejaVuSans-55"/>
      </defs>
      <g transform="translate(157.660625 291.709656)scale(0.1 -0.1)">
       <use xlink:href="#DejaVuSans-55"/>
       <use x="63.623047" xlink:href="#DejaVuSans-53"/>
      </g>
     </g>
    </g>
    <g id="xtick_5">
     <g id="line2d_5">
      <g>
       <use style="stroke:#000000;stroke-width:0.8;" x="208.663125" xlink:href="#mcb3012869d" y="277.111219"/>
      </g>
     </g>
     <g id="text_5">
      <!-- 100 -->
      <defs>
       <path d="M 12.40625 8.296875 
L 28.515625 8.296875 
L 28.515625 63.921875 
L 10.984375 60.40625 
L 10.984375 69.390625 
L 28.421875 72.90625 
L 38.28125 72.90625 
L 38.28125 8.296875 
L 54.390625 8.296875 
L 54.390625 0 
L 12.40625 0 
z
" id="DejaVuSans-49"/>
      </defs>
      <g transform="translate(199.119375 291.709656)scale(0.1 -0.1)">
       <use xlink:href="#DejaVuSans-49"/>
       <use x="63.623047" xlink:href="#DejaVuSans-48"/>
       <use x="127.246094" xlink:href="#DejaVuSans-48"/>
      </g>
     </g>
    </g>
    <g id="xtick_6">
     <g id="line2d_6">
      <g>
       <use style="stroke:#000000;stroke-width:0.8;" x="253.303125" xlink:href="#mcb3012869d" y="277.111219"/>
      </g>
     </g>
     <g id="text_6">
      <!-- 125 -->
      <g transform="translate(243.759375 291.709656)scale(0.1 -0.1)">
       <use xlink:href="#DejaVuSans-49"/>
       <use x="63.623047" xlink:href="#DejaVuSans-50"/>
       <use x="127.246094" xlink:href="#DejaVuSans-53"/>
      </g>
     </g>
    </g>
    <g id="xtick_7">
     <g id="line2d_7">
      <g>
       <use style="stroke:#000000;stroke-width:0.8;" x="297.943125" xlink:href="#mcb3012869d" y="277.111219"/>
      </g>
     </g>
     <g id="text_7">
      <!-- 150 -->
      <g transform="translate(288.399375 291.709656)scale(0.1 -0.1)">
       <use xlink:href="#DejaVuSans-49"/>
       <use x="63.623047" xlink:href="#DejaVuSans-53"/>
       <use x="127.246094" xlink:href="#DejaVuSans-48"/>
      </g>
     </g>
    </g>
    <g id="xtick_8">
     <g id="line2d_8">
      <g>
       <use style="stroke:#000000;stroke-width:0.8;" x="342.583125" xlink:href="#mcb3012869d" y="277.111219"/>
      </g>
     </g>
     <g id="text_8">
      <!-- 175 -->
      <g transform="translate(333.039375 291.709656)scale(0.1 -0.1)">
       <use xlink:href="#DejaVuSans-49"/>
       <use x="63.623047" xlink:href="#DejaVuSans-55"/>
       <use x="127.246094" xlink:href="#DejaVuSans-53"/>
      </g>
     </g>
    </g>
    <g id="xtick_9">
     <g id="line2d_9">
      <g>
       <use style="stroke:#000000;stroke-width:0.8;" x="387.223125" xlink:href="#mcb3012869d" y="277.111219"/>
      </g>
     </g>
     <g id="text_9">
      <!-- 200 -->
      <g transform="translate(377.679375 291.709656)scale(0.1 -0.1)">
       <use xlink:href="#DejaVuSans-50"/>
       <use x="63.623047" xlink:href="#DejaVuSans-48"/>
       <use x="127.246094" xlink:href="#DejaVuSans-48"/>
      </g>
     </g>
    </g>
   </g>
   <g id="matplotlib.axis_2">
    <g id="ytick_1">
     <g id="line2d_10">
      <defs>
       <path d="M 0 0 
L -3.5 0 
" id="m71fcf0d5e3" style="stroke:#000000;stroke-width:0.8;"/>
      </defs>
      <g>
       <use style="stroke:#000000;stroke-width:0.8;" x="30.103125" xlink:href="#m71fcf0d5e3" y="277.111219"/>
      </g>
     </g>
     <g id="text_10">
      <!-- 0.0 -->
      <defs>
       <path d="M 10.6875 12.40625 
L 21 12.40625 
L 21 0 
L 10.6875 0 
z
" id="DejaVuSans-46"/>
      </defs>
      <g transform="translate(7.2 280.910437)scale(0.1 -0.1)">
       <use xlink:href="#DejaVuSans-48"/>
       <use x="63.623047" xlink:href="#DejaVuSans-46"/>
       <use x="95.410156" xlink:href="#DejaVuSans-48"/>
      </g>
     </g>
    </g>
    <g id="ytick_2">
     <g id="line2d_11">
      <g>
       <use style="stroke:#000000;stroke-width:0.8;" x="30.103125" xlink:href="#m71fcf0d5e3" y="223.888819"/>
      </g>
     </g>
     <g id="text_11">
      <!-- 0.2 -->
      <g transform="translate(7.2 227.688037)scale(0.1 -0.1)">
       <use xlink:href="#DejaVuSans-48"/>
       <use x="63.623047" xlink:href="#DejaVuSans-46"/>
       <use x="95.410156" xlink:href="#DejaVuSans-50"/>
      </g>
     </g>
    </g>
    <g id="ytick_3">
     <g id="line2d_12">
      <g>
       <use style="stroke:#000000;stroke-width:0.8;" x="30.103125" xlink:href="#m71fcf0d5e3" y="170.666419"/>
      </g>
     </g>
     <g id="text_12">
      <!-- 0.4 -->
      <defs>
       <path d="M 37.796875 64.3125 
L 12.890625 25.390625 
L 37.796875 25.390625 
z
M 35.203125 72.90625 
L 47.609375 72.90625 
L 47.609375 25.390625 
L 58.015625 25.390625 
L 58.015625 17.1875 
L 47.609375 17.1875 
L 47.609375 0 
L 37.796875 0 
L 37.796875 17.1875 
L 4.890625 17.1875 
L 4.890625 26.703125 
z
" id="DejaVuSans-52"/>
      </defs>
      <g transform="translate(7.2 174.465637)scale(0.1 -0.1)">
       <use xlink:href="#DejaVuSans-48"/>
       <use x="63.623047" xlink:href="#DejaVuSans-46"/>
       <use x="95.410156" xlink:href="#DejaVuSans-52"/>
      </g>
     </g>
    </g>
    <g id="ytick_4">
     <g id="line2d_13">
      <g>
       <use style="stroke:#000000;stroke-width:0.8;" x="30.103125" xlink:href="#m71fcf0d5e3" y="117.444019"/>
      </g>
     </g>
     <g id="text_13">
      <!-- 0.6 -->
      <defs>
       <path d="M 33.015625 40.375 
Q 26.375 40.375 22.484375 35.828125 
Q 18.609375 31.296875 18.609375 23.390625 
Q 18.609375 15.53125 22.484375 10.953125 
Q 26.375 6.390625 33.015625 6.390625 
Q 39.65625 6.390625 43.53125 10.953125 
Q 47.40625 15.53125 47.40625 23.390625 
Q 47.40625 31.296875 43.53125 35.828125 
Q 39.65625 40.375 33.015625 40.375 
z
M 52.59375 71.296875 
L 52.59375 62.3125 
Q 48.875 64.0625 45.09375 64.984375 
Q 41.3125 65.921875 37.59375 65.921875 
Q 27.828125 65.921875 22.671875 59.328125 
Q 17.53125 52.734375 16.796875 39.40625 
Q 19.671875 43.65625 24.015625 45.921875 
Q 28.375 48.1875 33.59375 48.1875 
Q 44.578125 48.1875 50.953125 41.515625 
Q 57.328125 34.859375 57.328125 23.390625 
Q 57.328125 12.15625 50.6875 5.359375 
Q 44.046875 -1.421875 33.015625 -1.421875 
Q 20.359375 -1.421875 13.671875 8.265625 
Q 6.984375 17.96875 6.984375 36.375 
Q 6.984375 53.65625 15.1875 63.9375 
Q 23.390625 74.21875 37.203125 74.21875 
Q 40.921875 74.21875 44.703125 73.484375 
Q 48.484375 72.75 52.59375 71.296875 
z
" id="DejaVuSans-54"/>
      </defs>
      <g transform="translate(7.2 121.243237)scale(0.1 -0.1)">
       <use xlink:href="#DejaVuSans-48"/>
       <use x="63.623047" xlink:href="#DejaVuSans-46"/>
       <use x="95.410156" xlink:href="#DejaVuSans-54"/>
      </g>
     </g>
    </g>
    <g id="ytick_5">
     <g id="line2d_14">
      <g>
       <use style="stroke:#000000;stroke-width:0.8;" x="30.103125" xlink:href="#m71fcf0d5e3" y="64.221619"/>
      </g>
     </g>
     <g id="text_14">
      <!-- 0.8 -->
      <defs>
       <path d="M 31.78125 34.625 
Q 24.75 34.625 20.71875 30.859375 
Q 16.703125 27.09375 16.703125 20.515625 
Q 16.703125 13.921875 20.71875 10.15625 
Q 24.75 6.390625 31.78125 6.390625 
Q 38.8125 6.390625 42.859375 10.171875 
Q 46.921875 13.96875 46.921875 20.515625 
Q 46.921875 27.09375 42.890625 30.859375 
Q 38.875 34.625 31.78125 34.625 
z
M 21.921875 38.8125 
Q 15.578125 40.375 12.03125 44.71875 
Q 8.5 49.078125 8.5 55.328125 
Q 8.5 64.0625 14.71875 69.140625 
Q 20.953125 74.21875 31.78125 74.21875 
Q 42.671875 74.21875 48.875 69.140625 
Q 55.078125 64.0625 55.078125 55.328125 
Q 55.078125 49.078125 51.53125 44.71875 
Q 48 40.375 41.703125 38.8125 
Q 48.828125 37.15625 52.796875 32.3125 
Q 56.78125 27.484375 56.78125 20.515625 
Q 56.78125 9.90625 50.3125 4.234375 
Q 43.84375 -1.421875 31.78125 -1.421875 
Q 19.734375 -1.421875 13.25 4.234375 
Q 6.78125 9.90625 6.78125 20.515625 
Q 6.78125 27.484375 10.78125 32.3125 
Q 14.796875 37.15625 21.921875 38.8125 
z
M 18.3125 54.390625 
Q 18.3125 48.734375 21.84375 45.5625 
Q 25.390625 42.390625 31.78125 42.390625 
Q 38.140625 42.390625 41.71875 45.5625 
Q 45.3125 48.734375 45.3125 54.390625 
Q 45.3125 60.0625 41.71875 63.234375 
Q 38.140625 66.40625 31.78125 66.40625 
Q 25.390625 66.40625 21.84375 63.234375 
Q 18.3125 60.0625 18.3125 54.390625 
z
" id="DejaVuSans-56"/>
      </defs>
      <g transform="translate(7.2 68.020837)scale(0.1 -0.1)">
       <use xlink:href="#DejaVuSans-48"/>
       <use x="63.623047" xlink:href="#DejaVuSans-46"/>
       <use x="95.410156" xlink:href="#DejaVuSans-56"/>
      </g>
     </g>
    </g>
    <g id="ytick_6">
     <g id="line2d_15">
      <g>
       <use style="stroke:#000000;stroke-width:0.8;" x="30.103125" xlink:href="#m71fcf0d5e3" y="10.999219"/>
      </g>
     </g>
     <g id="text_15">
      <!-- 1.0 -->
      <g transform="translate(7.2 14.798437)scale(0.1 -0.1)">
       <use xlink:href="#DejaVuSans-49"/>
       <use x="63.623047" xlink:href="#DejaVuSans-46"/>
       <use x="95.410156" xlink:href="#DejaVuSans-48"/>
      </g>
     </g>
    </g>
   </g>
   <g id="line2d_16">
    <path clip-path="url(#paddd60876e)" d="M 30.103125 67.638392 
L 31.888725 64.361562 
L 33.674325 49.202577 
L 35.459925 67.638392 
L 37.245525 146.292788 
L 39.031125 137.70155 
L 40.816725 184.231883 
L 42.602325 97.642005 
L 44.387925 48.713203 
L 46.173525 48.713203 
L 47.959125 11.427714 
L 49.744725 11.427714 
L 51.530325 31.413927 
L 53.315925 31.413927 
L 55.101525 83.418602 
L 56.887125 97.012737 
L 58.672725 97.012737 
L 60.458325 46.390933 
L 62.243925 44.198582 
L 64.029525 44.198582 
L 65.815125 18.464225 
L 67.600725 113.394171 
L 69.386325 113.394171 
L 71.171925 67.613726 
L 74.743125 67.613726 
L 76.528725 51.809313 
L 78.314325 83.418851 
L 80.099925 83.418851 
L 81.885525 51.040535 
L 83.671125 47.500362 
L 85.456725 64.366953 
L 89.027925 64.366953 
L 90.813525 58.541213 
L 92.599125 56.324348 
L 94.384725 56.324348 
L 96.170325 24.764869 
L 97.955925 25.776079 
L 99.741525 22.666877 
L 105.098325 22.666877 
L 106.883925 25.776079 
L 108.669525 25.776079 
L 110.455125 95.921792 
L 112.240725 64.374979 
L 114.026325 11.304438 
L 115.811925 49.202586 
L 117.597525 51.037638 
L 119.383125 51.037638 
L 121.168725 26.956954 
L 122.954325 25.720577 
L 124.739925 31.780278 
L 126.525525 31.780278 
L 128.311125 83.23875 
L 130.096725 83.23875 
L 131.882325 86.681964 
L 133.667925 24.899021 
L 135.453525 65.773245 
L 137.239125 86.681964 
L 139.024725 37.722952 
L 140.810325 59.028814 
L 142.595925 59.028814 
L 144.381525 39.223139 
L 149.738325 39.223139 
L 151.523925 58.541213 
L 153.309525 116.041443 
L 155.095125 116.041443 
L 156.880725 136.621607 
L 158.666325 22.663648 
L 160.451925 130.755732 
L 162.237525 84.520985 
L 164.023125 159.229169 
L 165.808725 166.357674 
L 167.594325 66.540462 
L 169.379925 59.078056 
L 171.165525 59.078056 
L 172.951125 29.760322 
L 174.736725 44.762069 
L 176.522325 105.795265 
L 178.307925 105.795265 
L 180.093525 158.066239 
L 181.879125 37.726897 
L 183.664725 164.36442 
L 185.450325 95.909824 
L 187.235925 12.219043 
L 189.021525 95.75251 
L 190.807125 199.784018 
L 192.592725 103.790449 
L 194.378325 96.153384 
L 196.163925 96.153384 
L 197.949525 102.486686 
L 199.735125 99.066515 
L 201.520725 12.072507 
L 203.306325 23.378873 
L 206.877525 23.378873 
L 208.663125 87.936922 
L 210.448725 15.305308 
L 222.947925 15.305309 
L 224.733525 63.137433 
L 226.519125 46.601407 
L 228.304725 138.07606 
L 230.090325 61.441748 
L 231.875925 129.983794 
L 233.661525 135.938688 
L 235.447125 162.764853 
L 237.232725 162.764853 
L 239.018325 109.76207 
L 240.803925 63.169964 
L 242.589525 63.169964 
L 244.375125 109.983894 
L 246.160725 138.294843 
L 247.946325 62.41245 
L 249.731925 34.035487 
L 251.517525 36.130192 
L 253.303125 36.130192 
L 255.088725 29.055146 
L 256.874325 76.176336 
L 260.445525 76.176336 
L 262.231125 108.356338 
L 264.016725 12.471568 
L 265.802325 12.471568 
L 267.587925 36.971071 
L 271.159125 36.971071 
L 272.944725 58.538094 
L 276.515925 58.538094 
L 278.301525 14.471057 
L 287.229525 14.471057 
L 289.015125 14.987152 
L 290.800725 65.536669 
L 292.586325 48.584524 
L 294.371925 65.536669 
L 296.157525 54.783321 
L 297.943125 66.674859 
L 299.728725 66.674859 
L 301.514325 37.726897 
L 303.299925 37.726897 
L 305.085525 45.997725 
L 306.871125 91.827013 
L 308.656725 78.23861 
L 310.442325 17.478832 
L 312.227925 17.543001 
L 314.013525 12.757542 
L 315.799125 17.542999 
L 317.584725 11.076718 
L 319.370325 78.880613 
L 321.155925 78.880613 
L 322.941525 33.822382 
L 324.727125 33.822382 
L 326.512725 78.880613 
L 330.083925 78.880613 
L 331.869525 22.129947 
L 333.655125 101.780592 
L 335.440725 51.135408 
L 337.226325 62.083454 
L 339.011925 55.159062 
L 340.797525 99.875567 
L 342.583125 87.813669 
L 344.368725 87.822924 
L 346.154325 25.013558 
L 347.939925 87.819016 
L 349.725525 87.819016 
L 351.511125 98.929478 
L 353.296725 48.545969 
L 355.082325 104.033954 
L 356.867925 104.033954 
L 358.653525 63.736757 
L 360.439125 96.76452 
L 362.224725 14.260319 
L 364.010325 191.044373 
L 365.795925 44.464466 
L 374.723925 44.464466 
L 376.509525 24.10634 
L 380.080725 24.10634 
L 381.866325 14.832085 
L 385.437525 14.831868 
L 385.437525 14.831868 
" style="fill:none;stroke:#1f77b4;stroke-linecap:square;stroke-width:1.5;"/>
   </g>
   <g id="patch_3">
    <path d="M 30.103125 277.111219 
L 30.103125 10.999219 
" style="fill:none;stroke:#000000;stroke-linecap:square;stroke-linejoin:miter;stroke-width:0.8;"/>
   </g>
   <g id="patch_4">
    <path d="M 387.223125 277.111219 
L 387.223125 10.999219 
" style="fill:none;stroke:#000000;stroke-linecap:square;stroke-linejoin:miter;stroke-width:0.8;"/>
   </g>
   <g id="patch_5">
    <path d="M 30.103125 277.111219 
L 387.223125 277.111219 
" style="fill:none;stroke:#000000;stroke-linecap:square;stroke-linejoin:miter;stroke-width:0.8;"/>
   </g>
   <g id="patch_6">
    <path d="M 30.103125 10.999219 
L 387.223125 10.999219 
" style="fill:none;stroke:#000000;stroke-linecap:square;stroke-linejoin:miter;stroke-width:0.8;"/>
   </g>
  </g>
 </g>
 <defs>
  <clipPath id="paddd60876e">
   <rect height="266.112" width="357.12" x="30.103125" y="10.999219"/>
  </clipPath>
 </defs>
</svg>
